<?xml version="1.0" standalone="no"?>
<!DOCTYPE svg PUBLIC "-//W3C//DTD SVG 20010904//EN"
 "http://www.w3.org/TR/2001/REC-SVG-20010904/DTD/svg10.dtd">
<svg version="1.0" xmlns="http://www.w3.org/2000/svg"
 width="775.000000pt" height="231.000000pt" viewBox="0 0 775.000000 231.000000"
 preserveAspectRatio="xMidYMid meet">

<g transform="translate(0.000000,231.000000) scale(0.100000,-0.100000)"
fill="#000000" stroke="none">
<path d="M1785 2300 c-158 -25 -290 -85 -375 -170 -76 -75 -104 -135 -104
-225 0 -80 23 -136 80 -204 36 -42 122 -107 130 -98 2 2 -13 15 -33 29 -149
99 -205 253 -141 388 88 186 377 305 655 271 361 -44 579 -277 471 -501 -115
-238 -509 -345 -838 -229 -79 28 -94 30 -215 29 -71 -1 -132 -3 -134 -6 -3 -2
10 -19 27 -37 18 -18 32 -37 31 -42 0 -6 -173 -156 -385 -334 -357 -300 -383
-325 -369 -341 15 -16 11 -18 -56 -24 -230 -23 -426 -131 -496 -274 -39 -80
-39 -174 0 -254 53 -109 191 -205 356 -250 108 -30 324 -30 432 0 202 55 344
173 380 315 6 26 13 47 16 47 2 0 43 -32 89 -70 47 -39 91 -70 97 -69 7 0 1 8
-12 17 -13 9 -57 43 -98 76 -61 48 -72 61 -61 72 20 19 144 118 164 131 11 6
14 12 7 12 -6 1 -50 -31 -97 -69 -46 -39 -87 -70 -89 -70 -3 0 -10 21 -16 48
-38 150 -206 280 -415 320 -47 10 -85 20 -83 23 1 4 162 142 357 308 l355 301
36 -42 37 -42 5 29 c4 17 14 71 23 120 9 50 18 91 19 93 1 1 42 -11 91 -27
209 -70 436 -61 621 23 37 17 53 21 53 12 0 -10 560 -542 688 -653 l37 -31
-38 -40 -39 -40 84 -7 83 -8 -89 -18 c-188 -38 -359 -156 -402 -277 l-19 -52
-605 -2 -605 -3 603 -2 602 -3 0 -45 0 -45 -602 -3 -603 -2 605 -3 605 -2 19
-52 c39 -111 190 -223 365 -270 108 -30 324 -30 432 0 165 45 303 141 356 250
39 80 39 174 0 254 -50 102 -183 200 -328 242 -31 9 -98 22 -150 29 l-94 13
-17 119 c-9 66 -17 121 -17 122 -1 1 -18 -15 -38 -37 l-38 -39 -358 335 -358
335 40 45 c61 70 85 127 85 209 0 90 -28 150 -104 226 -127 128 -399 202 -615
169z m950 -995 l359 -335 33 32 c18 17 34 30 36 27 5 -5 27 -167 27 -194 0
-19 -4 -20 -92 -13 -51 3 -102 7 -112 7 -17 1 -15 6 14 36 l34 35 -44 44 c-37
36 -666 622 -679 633 -5 4 50 63 59 63 3 0 168 -151 365 -335z m-1218 248 c-3
-16 -11 -63 -18 -105 -7 -43 -16 -78 -20 -78 -4 0 -19 14 -33 31 -23 27 -29
29 -44 18 -9 -8 -176 -148 -370 -312 -335 -283 -354 -298 -389 -295 -38 3 -68
32 -47 46 6 4 181 151 388 326 374 317 377 319 358 340 -51 59 -55 56 68 56
l113 0 -6 -27z m-1037 -1139 c0 -47 33 -48 46 -2 14 49 39 47 57 -4 l15 -43 1
43 c1 47 21 57 39 20 l11 -23 0 23 c1 21 4 22 94 21 50 -1 80 -4 65 -6 -37 -6
-37 -33 0 -34 l27 -2 -27 -4 c-16 -2 -28 -10 -28 -18 0 -8 12 -16 28 -18 22
-3 20 -4 -10 -6 -38 -1 -38 -1 -38 39 0 29 -4 40 -15 40 -11 0 -15 -11 -15
-40 0 -29 -4 -40 -15 -40 -11 0 -15 11 -15 40 0 22 -4 40 -10 40 -5 0 -10 -18
-10 -40 0 -46 -19 -54 -44 -18 l-16 22 0 -22 c0 -17 -6 -22 -25 -22 -14 0 -25
5 -25 10 0 6 -7 10 -15 10 -8 0 -15 -4 -15 -10 0 -5 -20 -10 -45 -10 -41 0
-45 2 -45 24 0 19 -4 22 -25 18 -16 -3 -25 -11 -25 -23 0 -11 -7 -19 -15 -19
-11 0 -15 12 -15 45 l0 45 55 -1 55 -2 0 -33z m2728 29 c-16 -2 -28 -11 -28
-19 0 -8 11 -15 28 -15 l27 -2 -27 -4 c-16 -2 -28 -10 -28 -18 0 -8 12 -16 28
-18 22 -3 20 -4 -10 -6 -38 -1 -38 -1 -38 39 0 36 -2 40 -25 40 -32 0 -34 -29
-2 -31 l22 -2 -22 -4 c-15 -3 -23 -12 -23 -24 0 -10 -7 -19 -15 -19 -11 0 -15
12 -15 45 l0 45 78 -1 c42 -1 65 -4 50 -6z m54 -30 c2 -21 8 -38 13 -38 6 0
11 17 13 38 4 49 32 52 32 3 0 -39 -19 -59 -52 -54 -19 2 -23 10 -26 46 -2 23
1 42 7 42 5 0 11 -17 13 -37z"/>
<path d="M400 425 c0 -8 5 -15 10 -15 6 0 10 7 10 15 0 8 -4 15 -10 15 -5 0
-10 -7 -10 -15z"/>
<path d="M5854 2296 c-93 -18 -135 -32 -215 -72 -256 -127 -312 -380 -124
-552 l54 -49 -120 -8 c-65 -4 -119 -10 -119 -14 0 -4 14 -20 30 -36 17 -16 30
-32 30 -36 0 -5 -140 -137 -310 -295 -287 -265 -309 -288 -295 -304 15 -16 11
-18 -59 -24 -223 -20 -423 -131 -493 -274 -39 -80 -39 -174 0 -254 54 -110
182 -201 354 -250 112 -32 324 -32 436 0 207 59 342 172 378 315 6 26 13 47
16 47 2 0 43 -32 89 -70 47 -39 91 -70 97 -69 7 0 1 8 -12 17 -13 9 -57 43
-98 76 -61 48 -72 61 -61 72 20 19 144 118 164 131 11 6 14 12 7 12 -6 1 -50
-31 -97 -69 -46 -39 -87 -70 -89 -70 -3 0 -10 21 -16 48 -36 141 -173 257
-373 312 -40 11 -85 20 -100 20 -16 0 -28 4 -28 9 0 7 353 338 529 496 l43 39
35 -38 c19 -21 36 -36 38 -34 1 2 10 54 19 117 9 63 18 116 20 118 2 3 32 -10
66 -27 109 -55 197 -73 355 -73 155 0 246 18 347 69 29 14 49 23 45 18 -4 -4
122 -138 280 -296 l287 -288 -37 -38 -38 -39 32 -7 c17 -3 48 -6 68 -7 20 0
45 -4 56 -9 16 -7 14 -9 -15 -9 -58 -1 -179 -40 -262 -83 -95 -49 -179 -134
-205 -208 l-18 -50 -475 -2 -475 -3 473 -2 472 -3 0 -45 0 -45 -472 -3 -473
-2 475 -3 475 -2 18 -50 c40 -113 184 -221 363 -272 65 -18 104 -22 219 -22
160 0 244 18 367 80 254 128 310 376 125 552 -94 88 -231 145 -402 166 l-90
11 -12 115 c-6 63 -12 119 -12 125 -1 5 -19 -9 -41 -30 l-40 -40 -282 282
-282 282 43 46 c62 67 85 125 86 210 0 57 -5 81 -28 127 -54 109 -193 207
-356 249 -99 26 -273 33 -367 15z m-28 -357 c4 -8 9 -8 17 0 15 15 60 14 75
-1 9 -9 12 -9 12 0 0 21 30 13 40 -10 l9 -23 7 23 c6 21 12 23 63 20 50 -3 56
-5 56 -25 0 -34 12 -37 20 -5 6 29 7 29 73 30 37 0 59 -2 50 -5 -13 -3 -18
-15 -18 -44 0 -28 -4 -39 -15 -39 -11 0 -15 11 -15 40 0 30 -4 40 -16 40 -11
0 -14 -5 -10 -16 12 -31 18 -64 12 -64 -3 0 -15 6 -26 13 -17 9 -22 9 -28 0
-11 -17 -202 -17 -202 0 0 8 -4 7 -12 -1 -15 -15 -64 -16 -73 -2 -5 8 -11 7
-20 0 -8 -6 -26 -10 -42 -8 -22 2 -29 9 -31 31 -2 16 -1 35 2 43 6 16 62 19
72 3z m929 -579 c154 -154 285 -280 291 -280 6 0 21 11 34 25 13 14 27 22 31
18 4 -5 10 -52 14 -107 l8 -99 -99 8 c-55 4 -102 10 -107 14 -4 4 7 20 23 36
l31 29 -288 288 -287 287 29 31 c16 16 31 30 34 30 4 0 132 -126 286 -280z
m-1185 243 c0 -5 -7 -51 -15 -103 -8 -52 -15 -99 -15 -105 -1 -5 -16 7 -34 28
l-33 39 -298 -276 c-260 -241 -302 -276 -330 -276 -18 0 -39 8 -48 18 -14 16
6 37 298 306 l313 290 -29 35 -30 36 48 6 c73 9 173 10 173 2z m-812 -1065 c9
-9 12 -9 12 0 0 18 57 15 64 -3 7 -18 -5 -20 -22 -3 -9 9 -15 9 -23 1 -7 -7
-1 -14 21 -22 22 -7 31 -16 28 -28 -4 -21 -54 -31 -71 -14 -16 16 0 26 18 11
11 -9 19 -10 26 -3 7 7 1 15 -20 26 -17 9 -33 11 -37 6 -3 -5 -14 -9 -25 -9
-12 0 -19 -7 -19 -20 0 -11 -4 -20 -10 -20 -5 0 -10 20 -10 45 0 43 1 45 28
45 15 0 33 -5 40 -12z m111 -5 c9 -17 11 -17 25 2 20 28 32 12 12 -17 -9 -12
-16 -30 -16 -40 0 -10 -4 -18 -10 -18 -5 0 -10 7 -10 15 0 9 -7 29 -15 45 -16
32 -3 43 14 13z m2184 -5 l16 -23 0 23 c1 43 21 22 21 -23 0 -50 -11 -57 -34
-23 l-16 22 0 -22 c0 -20 -5 -22 -55 -22 l-55 0 0 40 c0 22 -4 40 -10 40 -5 0
-10 -18 -10 -40 0 -29 -4 -40 -15 -40 -11 0 -15 11 -15 39 0 29 -5 41 -17 44
-10 3 25 5 78 6 89 1 98 -1 112 -21z m198 10 c0 -10 2 -10 6 0 2 6 22 12 43
12 l38 0 0 -45 c0 -46 -12 -60 -21 -25 -7 25 -27 26 -27 1 0 -17 -9 -19 -95
-20 l-95 -2 0 46 0 45 75 0 c53 0 75 -4 76 -12z m147 5 c-16 -2 -28 -11 -28
-19 0 -8 11 -15 28 -15 l27 -2 -27 -4 c-16 -2 -28 -10 -28 -18 0 -8 12 -16 28
-18 22 -3 20 -4 -10 -6 l-38 -1 0 45 0 45 38 -1 c30 -2 32 -3 10 -6z"/>
<path d="M5782 1928 c-16 -16 -15 -33 1 -46 10 -9 18 -6 31 9 9 12 16 22 14
23 -2 1 -10 7 -19 14 -12 9 -18 9 -27 0z"/>
<path d="M5873 1933 c-18 -6 -16 -50 1 -56 18 -7 26 1 26 29 0 25 -9 34 -27
27z"/>
<path d="M6060 1924 c0 -8 5 -12 10 -9 6 3 10 10 10 16 0 5 -4 9 -10 9 -5 0
-10 -7 -10 -16z"/>
<path d="M6060 1885 c0 -8 5 -15 10 -15 6 0 10 7 10 15 0 8 -4 15 -10 15 -5 0
-10 -7 -10 -15z"/>
<path d="M4710 525 c0 -9 5 -15 11 -13 6 2 11 8 11 13 0 5 -5 11 -11 13 -6 2
-11 -4 -11 -13z"/>
<path d="M6960 525 c0 -9 9 -15 25 -15 16 0 25 6 25 15 0 9 -9 15 -25 15 -16
0 -25 -6 -25 -15z"/>
<path d="M6960 485 c0 -9 9 -15 25 -15 16 0 25 6 25 15 0 9 -9 15 -25 15 -16
0 -25 -6 -25 -15z"/>
<path d="M7130 526 c0 -8 10 -17 23 -19 l22 -4 -22 -2 c-32 -2 -30 -31 2 -31
22 0 25 4 25 35 0 31 -3 35 -25 35 -15 0 -25 -6 -25 -14z"/>
<path d="M7200 525 c0 -8 7 -15 15 -15 8 0 15 7 15 15 0 8 -7 15 -15 15 -8 0
-15 -7 -15 -15z"/>
<path d="M7290 524 c0 -17 22 -14 28 4 2 7 -3 12 -12 12 -9 0 -16 -7 -16 -16z"/>
<path d="M7200 485 c0 -10 7 -15 18 -13 21 4 19 22 -2 26 -10 2 -16 -3 -16
-13z"/>
</g>
</svg>
