# ProBuilder 4.4.0
# https://unity3d.com/unity/features/worldbuilding/probuilder
# 30/03/2021 00:26:51

mtllib ./Racine2.mtl
o Racine2

g Racine
v -118.2637 4.970909 63.43121
v -120.6713 4.970909 61.63884
v -121.1038 5.71 61.66759
v -118.3665 5.71 63.70543
v -121.7405 4.970909 60.84285
v -121.9223 5.71 61.05824
v -121.7405 6.449091 60.84285
v -120.6713 6.449091 61.63884
v -118.2637 6.449091 63.43121
v -127.5892 2.902097 56.36604
v -127.0904 2.629473 55.81594
v -127.3587 3.59367 55.61619
v -127.9555 3.598808 56.44403
v -126.7064 2.90209 55.18034
v -126.7368 3.598804 54.807
v -127.0769 4.306274 54.9045
v -127.6019 4.568141 55.43511
v -127.9597 4.306269 56.0902
v -120.8578 4.970909 59.65716
v -119.7886 4.970909 60.45316
v -119.8851 5.71 60.03058
v -120.7036 5.71 59.42123
v -117.381 4.970909 62.24552
v -117.1478 5.71 62.06842
v -117.381 6.449091 62.24552
v -119.7886 6.449091 60.45316
v -120.8578 6.449091 59.65716
v -114.6572 -0.9684596 64.37458
v -115.2025 -1.133913 64.77744
v -114.569 -0.7052565 65.24911
v -114.0108 -0.7705078 64.54784
v -115.4321 -0.9684896 65.41532
v -115.0807 -0.770494 65.98498
v -114.4807 -0.4419641 66.12386
v -113.889 -0.4070854 65.75539
v -113.7058 -0.4420586 65.08271
v -120.4944 6.730423 60.84909
v -117.7571 6.730423 62.88692
v -121.3129 6.730423 60.23973
v -120.4944 4.689577 60.84909
v -117.7571 4.689577 62.88692
v -121.3129 4.689577 60.23973
v -116.9495 4.750469 62.56675
v -117.3742 4.458352 63.17197
v -117.0323 6.454191 63.42653
v -116.7019 6.196034 62.75109
v -116.5939 5.456269 62.48075
v -117.8126 5.456275 64.11774
v -117.5846 6.196059 63.93681
v -117.8322 4.750454 63.75241
v -116.5589 4.518791 62.8576
v -117.0591 4.235278 63.4066
v -116.225 5.991355 64.02757
v -115.9548 5.790686 63.30731
v -116.0327 5.113311 62.89858
v -117.2514 5.113322 64.53558
v -116.8375 5.790734 64.49304
v -117.4416 4.51877 64.04324
v -116.2488 4.226751 63.07138
v -116.749 3.94323 63.62038
v -115.915 5.699311 64.24136
v -115.6447 5.498632 63.52108
v -115.7226 4.821263 63.11236
v -116.9413 4.821278 64.74937
v -116.5274 5.498703 64.70684
v -117.1315 4.226717 64.25701
v -123.2328 4.689574 58.81048
v -122.7776 4.970905 58.22791
v -122.7776 6.449094 58.22791
v -123.2328 6.730425 58.81048
v -123.6603 6.449093 59.41359
v -123.8421 5.71 59.62899
v -123.6603 4.970908 59.4136
v -122.6234 5.71 57.99197
v -124.2976 4.221755 58.01781
v -123.9136 4.494373 57.38222
v -124.2841 5.898545 57.1064
v -124.8091 6.160413 57.63699
v -125.1668 5.898542 58.29208
v -125.1627 5.191085 58.64591
v -124.7963 4.494377 58.56792
v -123.944 5.191082 57.00888
v -125.7753 3.422832 56.91766
v -125.3914 3.695449 56.28206
v -125.7619 5.099627 56.00623
v -126.2869 5.361494 56.53683
v -126.6446 5.099623 57.19192
v -126.6405 4.392164 57.54575
v -126.2741 3.695455 57.46776
v -125.4218 4.39216 55.90872
v -116.3265 3.330456 63.69425
v -116.653 3.585882 64.37256
v -115.1344 4.047 63.3096
v -115.7703 3.585915 63.18696
v -116.3531 4.047016 64.94661
v -114.9261 4.623866 63.81535
v -115.8088 4.623948 65.00114
v -115.161 4.76356 64.56197
v -116.2926 2.612497 63.71602
v -116.5542 2.800935 64.44266
v -114.9351 3.02645 63.45449
v -115.6714 2.80095 63.25708
v -116.1538 3.026463 65.09151
v -114.5877 3.400592 64.06378
v -115.4704 3.40066 65.24963
v -114.7963 3.440419 64.82998
v -116.2474 1.679613 63.93483
v -116.4828 1.849206 64.58879
v -115.0257 2.052171 63.69945
v -115.6883 1.849225 63.5218
v -116.1225 2.052183 65.17277
v -114.713 2.388897 64.2478
v -115.5074 2.388969 65.3151
v -114.9007 2.424744 64.93739
v -115.9874 0.8474317 64.14644
v -116.2228 1.017023 64.80039
v -114.7657 1.21999 63.91106
v -115.4283 1.017048 63.73343
v -115.8625 1.220003 65.38438
v -114.453 1.556714 64.4594
v -115.2474 1.556798 65.52674
v -114.6408 1.592564 65.14901

vt 12.16109 5.939399
vt 9.159606 5.939399
vt 8.829846 6.67849
vt 12.24241 6.67849
vt 7.826622 5.939399
vt 7.809425 6.67849
vt 7.826622 7.417581
vt 9.159606 7.417581
vt 12.16109 7.417581
vt 1.759537 4.03601
vt 1.020439 3.763386
vt 1.02043 4.727583
vt 2.040862 4.732721
vt 0.2813252 4.036003
vt 0 4.732718
vt 0.2813309 5.440187
vt 1.020437 5.702054
vt 1.759529 5.440182
vt 8.97667 5.939369
vt 7.643686 5.939369
vt 7.973448 6.67846
vt 8.993876 6.67846
vt 4.642202 5.939369
vt 4.560892 6.67846
vt 4.642202 7.417551
vt 7.643686 7.417551
vt 8.97667 7.417551
vt 15.15539 0.2470237
vt 14.95854 0.8958151
vt 15.74841 0.8958151
vt 15.77735 0
vt 15.15528 1.544589
vt 15.77737 1.791645
vt 16.34155 1.544782
vt 16.59617 0.8958451
vt 16.34139 0.2469052
vt 2.367783 1.576587
vt 5.369269 1.576583
vt 5.699029 0.8374972
vt 2.286471 0.8374937
vt 6.702253 1.576587
vt 6.71945 0.8374969
vt 6.702248 0.09840226
vt 5.369263 0.09839797
vt 2.367779 0.09839892
vt 11.69918 0.1657807
vt 8.697701 0.1657797
vt 8.367934 0.904879
vt 11.78049 0.9048754
vt 7.364716 0.165784
vt 7.347513 0.9048787
vt 7.36471 1.643969
vt 8.697694 1.643964
vt 11.69918 1.643968
vt 12.2371 0.1657883
vt 12.25785 0.9048772
vt 1.382855 0.8375021
vt 1.521129 0.09839129
vt 3.795552 7.164494
vt 3.870404 6.424729
vt 4.104284 5.718928
vt 12.93289 6.424765
vt 13.00774 7.164549
vt 1.521131 1.576607
vt 12.699 5.718944
vt 12.23709 1.643961
vt 12.72412 0.1658183
vt 12.65072 0.9049058
vt 0.3763847 0.8375308
vt 0.5897124 0.09841001
vt 2.864136 6.759146
vt 3.170737 6.08177
vt 3.617264 5.487251
vt 13.63256 6.081811
vt 13.93918 6.759223
vt 0.5896947 1.576639
vt 13.186 5.48726
vt 12.72408 1.643974
vt 13.1005 0.1521393
vt 13.0271 0.8912206
vt 0 0.8238548
vt 0.2133393 0.0847187
vt 2.487762 6.467092
vt 2.794359 5.789722
vt 3.240882 5.19521
vt 14.00895 5.789767
vt 14.31556 6.467192
vt 0.2133117 1.562974
vt 13.56237 5.195206
vt 13.10046 1.630286
vt 4.95407 0.9048902
vt 4.971276 0.1657879
vt 9.095691 0.09841383
vt 9.112894 0.8375084
vt 5.433179 7.417583
vt 5.415984 6.67849
vt 9.095696 1.576599
vt 4.971269 1.643983
vt 11.38732 6.678459
vt 11.37011 7.417553
vt 5.433181 5.939397
vt 11.37011 5.939365
vt 3.626642 0.9049097
vt 3.555074 0.1658021
vt 10.9738 0.09842908
vt 11.07805 0.8375261
vt 3.555071 6.867032
vt 3.769691 6.159575
vt 10.9738 1.576614
vt 3.555071 1.644004
vt 13.03362 6.159541
vt 13.24822 6.867005
vt 4.016984 5.462867
vt 12.78631 5.462833
vt 1.784302 0.9049191
vt 1.712732 0.1658086
vt 12.81614 0.09843254
vt 12.92039 0.8375356
vt 1.712731 6.068112
vt 1.927352 5.360653
vt 12.81614 1.576623
vt 1.712731 1.644013
vt 14.87596 5.36062
vt 15.09057 6.068087
vt 2.174644 4.663944
vt 14.62865 4.663908
vt 0.07157707 0.8064897
vt 4.768372E-06 0.06737602
vt 14.52887 0
vt 14.63311 0.7391062
vt 0 5.274758
vt 0.2146177 4.567298
vt 14.52888 1.478198
vt 0 1.545588
vt 16.58869 4.567264
vt 16.80329 5.274734
vt 0.4619122 3.870587
vt 16.34138 3.870549
vt 1.10517 5.077143
vt 1.844235 5.36063
vt 0.912105 4.464369
vt 1.65116 4.719795
vt 2.204736 5.01546
vt 2.788018 4.554375
vt 0.3660885 5.360664
vt 0.1730304 4.719828
vt 14.01521 4.554372
vt 14.59857 5.015505
vt 1.73565 5.592326
vt 15.0677 5.592438
vt 0 5.940761
vt 0.7391189 6.141369
vt 0.1930489 5.066007
vt 0.9321777 5.205618
vt 1.478255 5.940691
vt 1.671327 5.065925
vt 0.9093195 3.74641
vt 1.648366 3.934848
vt 1.95836 3.99491
vt 2.666855 3.769409
vt 0.1702529 3.934863
vt 14.13635 3.769425
vt 14.84495 3.994952
vt 1.315852 4.369051
vt 15.48755 4.36915
vt 0.1958162 3.842719
vt 0.9349586 3.882478
vt 1.674126 3.84265
vt 1.057827 2.813526
vt 1.722957 2.983119
vt 1.884697 3.020631
vt 2.522335 2.817684
vt 0.3926773 2.983138
vt 14.28088 2.817696
vt 14.91862 3.020673
vt 1.306442 3.357356
vt 15.49697 3.357459
vt 0.1212111 2.831028
vt 0.7864509 2.866802
vt 1.451715 2.830955
vt 1.072314 1.981345
vt 1.737435 2.150936
vt 1.549787 2.188449
vt 2.187418 1.985507
vt 0.4071761 2.150961
vt 14.61578 1.985513
vt 15.25353 2.188493
vt 0.9715409 2.525173
vt 15.8319 2.525288
vt 0.106703 1.998857
vt 0.7719612 2.034623
vt 1.437237 1.998772
vt 1.109764 0
vt 1.758538 0.1654234
vt 0.5640354 0.1979518
vt 1.185995 0
vt 0.4609729 0.1654534
vt 15.61719 0
vt 16.23928 0.1979957
vt 0 0.526401
vt 16.80346 0.5265255
vt 0.08557315 9.441376E-05
vt 0.7345104 0.03497314
vt 1.38345 0

vn -0.558093 -0.3557472 0.7496508
vn -0.5580935 0.3557443 0.7496518
vn -0.7694088 -0.3339146 -0.5444474
vn -0.7750399 -0.3276053 -0.5403592
vn -0.7637779 -0.3402238 -0.5485355
vn -0.7385868 -0.3377002 -0.5832825
vn -0.7290674 -0.3476956 -0.5895495
vn -0.7481062 -0.3277047 -0.5770155
vn -0.7592855 -0.2843798 -0.5853322
vn -0.753653 -0.2906907 -0.5894215
vn -0.7480206 -0.2970016 -0.5935109
vn -0.7840488 -0.2867505 -0.5502841
vn -0.7926809 -0.2764093 -0.5433738
vn -0.7754168 -0.2970917 -0.5571943
vn 0.5580912 -0.3557427 -0.7496543
vn 0.5580953 0.3557388 -0.749653
vn 0.2921535 -0.9563676 0.002692362
vn 0.3131341 -0.9162601 0.175073
vn 0.3341147 -0.8761526 0.3474536
vn 0.3233377 -0.9082714 0.2407383
vn 0.3125804 -0.9403924 0.1339984
vn 0.3258024 -0.8784941 0.3005785
vn 0.3390195 -0.8165979 0.4671549
vn 0.3125854 -0.9403903 0.1340021
vn -0.2124364 0.9345826 0.2853526
vn 0.212435 0.9345836 -0.2853506
vn 0.212435 -0.9345835 -0.2853506
vn -0.2124362 -0.9345825 0.2853533
vn -0.1134009 -0.8836984 -0.4541116
vn -0.1250652 -0.8674339 -0.4804408
vn -0.1367296 -0.8511694 -0.5067699
vn 0.4379581 0.889082 -0.1331387
vn 0.4341047 0.8911264 -0.1320099
vn 0.4302513 0.8931707 -0.1308811
vn 0.6396455 0.3640568 -0.6769906
vn 0.648269 0.3527851 -0.6745984
vn 0.6568924 0.3415135 -0.6722061
vn 0.4559184 -0.3408684 -0.8221602
vn 0.4532076 -0.3345028 -0.8262242
vn 0.4504968 -0.3281373 -0.8302883
vn -0.4423488 0.3653918 0.8190339
vn -0.4585204 0.3549079 0.8144983
vn -0.474692 0.344424 0.8099627
vn -0.006433035 0.8907598 0.4544288
vn -0.002104988 0.8910556 0.4538682
vn 0.002223041 0.8913515 0.4533075
vn -0.667065 -0.3389138 0.663447
vn -0.6617445 -0.3356134 0.6703515
vn -0.656424 -0.332313 0.677256
vn -0.5041815 -0.8632906 -0.02303055
vn -0.4953166 -0.8676333 0.01597317
vn -0.4864517 -0.8719761 0.05497691
vn -0.1310498 -0.8537003 -0.5040057
vn -0.1437711 -0.8329453 -0.5330087
vn -0.1564924 -0.8121904 -0.5620117
vn 0.5312694 0.8448578 -0.06299257
vn 0.5181763 0.8532242 -0.05675989
vn 0.5050831 0.8615904 -0.05052726
vn 0.6731535 0.3385045 -0.6574795
vn 0.6783233 0.3281791 -0.6572996
vn 0.6834931 0.3178537 -0.6571197
vn 0.4319417 -0.3203488 -0.8430914
vn 0.4324752 -0.3228111 -0.8418732
vn 0.4330088 -0.3252733 -0.840655
vn -0.421711 0.3359753 0.8421879
vn -0.4334971 0.3302298 0.8383567
vn -0.4452832 0.3244842 0.8345256
vn 0.07835215 0.8528585 0.5162299
vn 0.09355241 0.8528618 0.513455
vn 0.1087526 0.8528649 0.5106803
vn -0.6807588 -0.3217115 0.65808
vn -0.6824612 -0.3222244 0.6560571
vn -0.6841636 -0.3227374 0.6540343
vn -0.5631799 -0.8258328 -0.02878704
vn -0.5504186 -0.8337041 0.01146921
vn -0.5376574 -0.8415754 0.05172543
vn -0.2650756 -0.7367802 -0.6220048
vn 0.6686752 0.7422453 0.04410655
vn 0.7160787 0.2983662 -0.6310381
vn 0.367049 -0.2633472 -0.8921454
vn -0.357212 0.27433 0.8928285
vn 0.2464345 0.7291029 0.6384975
vn 0.2464609 0.7290912 0.6385008
vn -0.7151537 -0.2956895 0.6333427
vn -0.6605816 -0.7480402 -0.0637789
vn 0.4494486 -0.8898448 -0.07856308
vn 0.4504426 -0.88784 -0.09290282
vn 0.4514365 -0.8858353 -0.1072426
vn -0.003380847 0.8994555 -0.4369994
vn -0.00018998 0.8986801 -0.4385895
vn 0.003000929 0.8979048 -0.4401796
vn -0.6382482 0.3559246 0.6826105
vn -0.6410582 0.3475783 0.6842177
vn -0.6438681 0.3392319 0.6858248
vn -0.4176587 0.900131 0.1237955
vn -0.4202855 0.8986307 0.1257378
vn -0.4229122 0.8971305 0.12768
vn 0.0422491 -0.8936346 0.4468023
vn 0.03965892 -0.8876228 0.4586605
vn 0.03706877 -0.881611 0.4705188
vn 0.4640931 0.3557798 -0.8111957
vn 0.4709712 0.3485447 -0.8103101
vn 0.4778493 0.3413096 -0.8094244
vn -0.4663422 -0.3513039 0.8118563
vn -0.4667227 -0.344212 0.8146349
vn -0.4671032 -0.3371201 0.8174134
vn 0.6494241 -0.3508469 -0.6746517
vn 0.646648 -0.3451191 -0.680197
vn 0.643872 -0.3393913 -0.6857423
vn 0.5092329 -0.8584925 -0.06060043
vn -0.08549943 0.8572837 -0.5076954
vn -0.08550207 0.8572842 -0.5076941
vn -0.6717954 0.328186 0.664067
vn -0.5108895 0.8572825 0.06370785
vn 0.0879913 -0.8584877 0.5052292
vn 0.4434886 0.3281815 -0.8340353
vn -0.4442176 -0.326957 0.8341283
vn 0.6716751 -0.3269548 -0.6647956
vn 0.5382006 -0.8420456 -0.03604518
vn -0.08879463 0.8555302 -0.5100821
vn -0.713473 0.3100723 0.6283402
vn -0.540815 0.8401649 0.04052388
vn 0.09158367 -0.8567082 0.5076058
vn 0.4748118 0.3401565 -0.8116942
vn -0.4746308 -0.3404363 0.8116828
vn 0.713143 -0.3066972 -0.6303682
vn -0.7904086 -0.5715703 -0.2203673
vn -0.7851238 -0.5901258 -0.1832563
vn -0.779839 -0.6086812 -0.1461452
vn 0.1920586 -0.1027085 -0.9759942
vn 0.1987397 -0.06288303 -0.9771981
vn 0.2054208 -0.02305757 -0.9784021
vn -0.4966483 -0.498952 -0.7102024
vn -0.4944256 -0.4647655 -0.7333664
vn -0.4922028 -0.430579 -0.7565303
vn -0.6417722 -0.356835 0.6788206
vn -0.6615039 -0.3556073 0.6596966
vn -0.6812354 -0.3543797 0.6405727
vn 0.6697229 0.3256402 -0.6674052
vn 0.6690325 0.3323787 -0.6647308
vn 0.6683421 0.3391171 -0.6620563
vn -0.1372221 0.1453541 0.9798175
vn -0.1861978 0.138093 0.9714627
vn -0.2351736 0.1308319 0.9631078
vn 0.377962 0.5588238 0.738147
vn 0.3787811 0.5586829 0.7378331
vn 0.3796002 0.558542 0.7375192
vn 0.7567286 0.6453841 0.1041203
vn 0.7527143 0.6492666 0.1087276
vn 0.7486999 0.6531491 0.1133348
vn -0.9076767 -0.05549015 -0.4159855
vn -0.924992 -0.1005315 -0.3587123
vn -0.9423074 -0.1455728 -0.301439
vn 0.2498629 -0.08810708 -0.9642644
vn 0.2615646 -0.06975444 -0.9624143
vn 0.2732661 -0.05140181 -0.9605642
vn -0.6286826 -0.1473804 -0.7635688
vn -0.6059126 -0.09975602 -0.7871321
vn -0.5831426 -0.05213162 -0.8106955
vn -0.8625783 -0.06379354 0.5018855
vn -0.8484597 -0.07470116 0.5232229
vn -0.8343412 -0.08560877 0.5445603
vn 0.8533213 0.1337105 -0.5039486
vn 0.8471469 0.111073 -0.5188754
vn 0.8409724 0.08843552 -0.533802
vn -0.2023596 0.09881677 0.9743131
vn -0.2428246 0.1069272 0.9632115
vn -0.2832897 0.1150377 0.9521099
vn 0.4895988 0.3016385 0.8181121
vn 0.4903778 0.3012905 0.8177731
vn 0.4911569 0.3009426 0.8174341
vn 0.9240607 0.30211 0.2341826
vn 0.9236841 0.3026937 0.2349115
vn 0.9233074 0.3032773 0.2356404
vn -0.9436774 -0.1182242 -0.3090244
vn 0.3233059 -0.2588892 -0.9101922
vn -0.5365363 -0.2172762 -0.8154263
vn -0.8534026 0.0159921 0.5210071
vn -0.8534068 0.01599634 0.521
vn -0.8534111 0.01600059 0.5209928
vn 0.8982209 -0.1838382 -0.3992529
vn -0.2620146 0.07183997 0.9623864
vn 0.5266573 0.03570246 0.8493276
vn 0.9615142 -0.07076374 0.2654864
vn -0.9083087 -0.3442103 -0.2376857
vn 0.2978303 -0.1468163 -0.9432614
vn -0.4836278 -0.3545973 -0.8002281
vn -0.8262299 -0.1180684 0.5508214
vn 0.8289105 0.1200429 -0.5463489
vn -0.298496 0.146565 0.9430901
vn -0.298516 0.1465707 0.9430829
vn 0.4791849 0.3539715 0.8031725
vn 0.9106929 0.3430378 0.2301384
vn -0.8842101 -0.417173 -0.2100937
vn 0.3063723 -0.1826813 -0.9342182
vn -0.4495215 -0.4278085 -0.7841623
vn -0.8164792 -0.1526804 0.5568218
vn 0.822663 0.1353295 -0.552188
vn -0.3062022 0.1627419 0.9379528
vn 0.4639282 0.4122099 0.7841261
vn 0.8888687 0.4012471 0.2211633

usemtl bark01_bottom_1
f 4/4/1 3/3/1 2/2/1 1/1/1
f 3/3/1 6/6/1 5/5/1 2/2/1
f 8/8/2 7/7/2 6/6/2 3/3/2
f 9/9/2 8/8/2 3/3/2 4/4/2
f 13/13/5 12/12/3 11/11/4 10/10/3
f 12/12/8 15/15/6 14/14/7 11/11/6
f 17/17/11 16/16/10 15/15/9 12/12/10
f 18/18/13 17/17/12 12/12/14 13/13/12
f 19/19/15 22/22/15 21/21/15 20/20/15
f 20/20/15 21/21/15 24/24/15 23/23/15
f 21/21/16 26/26/16 25/25/16 24/24/16
f 22/22/16 27/27/16 26/26/16 21/21/16
f 28/28/17 31/31/18 30/30/19 29/29/18
f 29/29/19 30/30/20 33/33/21 32/32/20
f 30/30/24 35/35/22 34/34/23 33/33/22
f 31/31/19 36/36/20 35/35/24 30/30/20
f 8/38/25 9/37/25 38/40/25 37/39/25
f 7/41/25 8/38/25 37/39/25 39/42/25
f 39/42/26 37/39/26 26/44/26 27/43/26
f 37/39/26 38/40/26 25/45/26 26/44/26
f 23/46/27 41/49/27 40/48/27 20/47/27
f 20/47/27 40/48/27 42/51/27 19/50/27
f 40/48/28 2/53/28 5/52/28 42/51/28
f 41/49/28 1/54/28 2/53/28 40/48/28
f 43/55/30 44/56/31 41/49/30 23/46/29
f 45/57/33 46/58/34 25/45/33 38/40/32
f 46/59/36 47/60/37 24/24/36 25/25/35
f 47/60/39 43/61/40 23/23/39 24/24/38
f 48/62/42 49/63/43 9/9/42 4/4/41
f 49/64/45 45/57/46 38/40/45 9/37/44
f 50/65/48 48/62/49 4/4/48 1/1/47
f 44/56/51 50/66/52 1/54/51 41/49/50
f 51/67/54 52/68/55 44/56/54 43/55/53
f 53/69/57 54/70/58 46/58/57 45/57/56
f 54/71/60 55/72/61 47/60/60 46/59/59
f 55/72/63 51/73/64 43/61/63 47/60/62
f 56/74/66 57/75/67 49/63/66 48/62/65
f 57/76/69 53/69/70 45/57/69 49/64/68
f 58/77/72 56/74/73 48/62/72 50/65/71
f 52/68/75 58/78/76 50/66/75 44/56/74
f 59/79/77 60/80/77 52/68/77 51/67/77
f 61/81/78 62/82/78 54/70/78 53/69/78
f 62/83/79 63/84/79 55/72/79 54/71/79
f 63/84/80 59/85/80 51/73/80 55/72/80
f 64/86/81 65/87/81 57/75/81 56/74/81
f 65/88/82 61/81/83 53/69/82 57/76/82
f 66/89/84 64/86/84 56/74/84 58/77/84
f 60/80/85 66/90/85 58/78/85 52/68/85
f 67/91/27 68/92/27 19/50/27 42/51/27
f 69/93/26 70/94/26 39/42/26 27/43/26
f 71/95/2 72/96/2 6/6/2 7/7/2
f 70/94/25 71/97/25 7/41/25 39/42/25
f 73/98/28 67/91/28 42/51/28 5/52/28
f 74/99/16 69/100/16 27/27/16 22/22/16
f 72/96/1 73/101/1 5/5/1 6/6/1
f 68/102/15 74/99/15 22/22/15 19/19/15
f 75/103/87 76/104/88 68/92/87 67/91/86
f 77/105/90 78/106/91 70/94/90 69/93/89
f 79/107/93 80/108/94 72/96/93 71/95/92
f 78/106/96 79/109/97 71/97/96 70/94/95
f 81/110/99 75/103/100 67/91/99 73/98/98
f 82/111/102 77/112/103 69/100/102 74/99/101
f 80/108/105 81/113/106 73/101/105 72/96/104
f 76/114/108 82/111/109 74/99/108 68/102/107
f 83/115/110 84/116/110 76/104/110 75/103/110
f 85/117/112 86/118/112 78/106/112 77/105/111
f 87/119/113 88/120/113 80/108/113 79/107/113
f 86/118/114 87/121/114 79/109/114 78/106/114
f 89/122/115 83/115/115 75/103/115 81/110/115
f 90/123/116 85/124/116 77/112/116 82/111/116
f 88/120/117 89/125/117 81/113/117 80/108/117
f 84/126/118 90/123/118 82/111/118 76/114/118
f 11/127/119 14/128/119 84/116/119 83/115/119
f 16/129/120 17/130/120 86/118/120 85/117/120
f 18/131/121 13/132/121 88/120/121 87/119/121
f 17/130/122 18/133/122 87/121/122 86/118/122
f 10/134/123 11/127/123 83/115/123 89/122/123
f 15/135/124 16/136/124 85/124/124 90/123/124
f 13/132/125 10/137/125 89/125/125 88/120/125
f 14/138/126 15/135/126 90/123/126 84/126/126
f 91/141/128 92/142/129 66/140/128 60/139/127
f 93/143/131 94/144/132 59/85/131 63/84/130
f 94/146/134 91/141/135 60/139/134 59/145/133
f 92/147/137 95/148/138 64/86/137 66/89/136
f 96/149/140 93/143/141 63/84/140 62/83/139
f 95/148/143 97/150/144 65/87/143 64/86/142
f 97/153/146 98/154/147 61/152/146 65/151/145
f 98/154/149 96/156/150 62/155/149 61/152/148
f 99/157/152 100/158/153 92/142/152 91/141/151
f 101/159/155 102/160/156 94/144/155 93/143/154
f 102/161/158 99/157/159 91/141/158 94/146/157
f 100/162/161 103/163/162 95/148/161 92/147/160
f 104/164/164 101/159/165 93/143/164 96/149/163
f 103/163/167 105/165/168 97/150/167 95/148/166
f 105/166/170 106/167/171 98/154/170 97/153/169
f 106/167/173 104/168/174 96/156/173 98/154/172
f 107/169/175 108/170/175 100/158/175 99/157/175
f 109/171/176 110/172/176 102/160/176 101/159/176
f 110/173/177 107/169/177 99/157/177 102/161/177
f 108/174/179 111/175/180 103/163/179 100/162/178
f 112/176/181 109/171/181 101/159/181 104/164/181
f 111/175/182 113/177/182 105/165/182 103/163/182
f 113/178/183 114/179/183 106/167/183 105/166/183
f 114/179/184 112/180/184 104/168/184 106/167/184
f 115/181/185 116/182/185 108/170/185 107/169/185
f 117/183/186 118/184/186 110/172/186 109/171/186
f 118/185/187 115/181/187 107/169/187 110/173/187
f 116/186/188 119/187/188 111/175/188 108/174/188
f 120/188/189 117/183/189 109/171/189 112/176/189
f 119/187/191 121/189/191 113/177/191 111/175/190
f 121/190/192 122/191/192 114/179/192 113/178/192
f 122/191/193 120/192/193 112/180/193 114/179/193
f 29/193/194 32/194/194 116/182/194 115/181/194
f 31/195/195 28/196/195 118/184/195 117/183/195
f 28/197/196 29/193/196 115/181/196 118/185/196
f 32/198/197 33/199/197 119/187/197 116/186/197
f 36/200/198 31/195/198 117/183/198 120/188/198
f 33/199/199 34/201/199 121/189/199 119/187/199
f 34/202/200 35/203/200 122/191/200 121/190/200
f 35/203/201 36/204/201 120/192/201 122/191/201

